<svg id="Layer_1" data-name="Layer 1" xmlns="http://www.w3.org/2000/svg" viewBox="0 0 129.22 51.59"><defs><style>.cls-1{fill:#262626;}</style></defs><title>Artboard 1</title><path class="cls-1" d="M126.05,35.64a24.73,24.73,0,0,1-2.32,1.92,26.92,26.92,0,0,1-2.9,1.87,20.42,20.42,0,0,1-3.16,1.43,9.28,9.28,0,0,1-3.09.57,3.77,3.77,0,0,1-.87-.1,2.44,2.44,0,0,1-.77-.33,3.27,3.27,0,0,1-.72-.67,7.6,7.6,0,0,1-.72-1.08,17.06,17.06,0,0,0,4-1.6,14.59,14.59,0,0,0,3.14-2.34,13.27,13.27,0,0,0,2.31-3.15,7.12,7.12,0,0,0,1-3.32,6.22,6.22,0,0,0-.49-2.51A5.57,5.57,0,0,0,120,24.43a6.23,6.23,0,0,0-2-1.23,7.2,7.2,0,0,0-2.54-.44,7.63,7.63,0,0,0-3,.59,8.9,8.9,0,0,0-2.48,1.59A11,11,0,0,0,108,27.25,15.41,15.41,0,0,0,106.64,30q-.55,1.45-1.06,3.31a12.5,12.5,0,0,0-.51,3.22c0,.39,0,.78,0,1.16a26.91,26.91,0,0,1-2.7,1.73,20.42,20.42,0,0,1-3.16,1.43,9.28,9.28,0,0,1-3.09.57,3.77,3.77,0,0,1-.87-.1,2.44,2.44,0,0,1-.77-.33,3.25,3.25,0,0,1-.72-.67,7.6,7.6,0,0,1-.72-1.08,17,17,0,0,0,4-1.6,14.57,14.57,0,0,0,3.14-2.34,13.3,13.3,0,0,0,2.31-3.15,7.12,7.12,0,0,0,1-3.32,6.22,6.22,0,0,0-.49-2.51,5.58,5.58,0,0,0-1.36-1.91,6.23,6.23,0,0,0-2-1.23,7.2,7.2,0,0,0-2.54-.44,7.63,7.63,0,0,0-3,.59,8.91,8.91,0,0,0-2.48,1.59,11,11,0,0,0-1.93,2.31A15.35,15.35,0,0,0,88.23,30q-.55,1.45-1.06,3.31a12.5,12.5,0,0,0-.51,3.22c0,.05,0,.1,0,.15-.53.59-1.07,1.17-1.65,1.71a15.89,15.89,0,0,1-1.2,1,12,12,0,0,1-1.29.9A8.11,8.11,0,0,1,81.2,41a3.56,3.56,0,0,1-1.25.25.87.87,0,0,1-.76-.6A3.64,3.64,0,0,1,78.91,39a13.26,13.26,0,0,1,.45-3.48,17.85,17.85,0,0,1,1.75-4,19.1,19.1,0,0,0,1.76-3.89,11.82,11.82,0,0,0,.46-3.3A3.68,3.68,0,0,0,83.11,23a2.28,2.28,0,0,0-.55-.83,1.85,1.85,0,0,0-.7-.41,2.28,2.28,0,0,0-.66-.11,4.56,4.56,0,0,0-2.5.89,26.43,26.43,0,0,0-3.42,2.92,40.64,40.64,0,0,0-3.33,3.59Q70.7,30.63,69.7,32l-.47-.34L71.15,28q1.09-2,2.21-4.35t2.2-4.76q1.08-2.45,1.92-4.85a43.33,43.33,0,0,0,1.35-4.61,18.1,18.1,0,0,0,.51-4,11.59,11.59,0,0,0-.2-2.22,4.41,4.41,0,0,0-.7-1.71A3.33,3.33,0,0,0,77.1.4,5.13,5.13,0,0,0,74.94,0a7.47,7.47,0,0,0-4.5,1.42A12.83,12.83,0,0,0,67,5.25a26.22,26.22,0,0,0-2.47,5.58A41.38,41.38,0,0,0,63,17.5l-1,7q-.52,3.54-.71,6.84c-.12,2-.19,3.74-.22,5.39-.46.57-.92,1.12-1.41,1.66q-.51.56-1.09,1.08a12.87,12.87,0,0,1-1.15.93,6.69,6.69,0,0,1-1.14.67,2.6,2.6,0,0,1-1.07.25.85.85,0,0,1-.89-.63A5.83,5.83,0,0,1,54.12,39a16.11,16.11,0,0,1,.4-3.22l.72-3.4q.31-1.49.56-2.91A15.39,15.39,0,0,0,56,26.86a4.36,4.36,0,0,0-.13-1.21,1.64,1.64,0,0,0-.38-.69,1.16,1.16,0,0,0-.57-.32,3,3,0,0,0-.69-.07h-1.1a5.23,5.23,0,0,1-.63,0,2.22,2.22,0,0,1-.6-.16,1.14,1.14,0,0,1-.49-.39L51,23.44a2.21,2.21,0,0,0-.53-.51,1.53,1.53,0,0,0-.88-.22,8.2,8.2,0,0,0-3.33.72,13.25,13.25,0,0,0-3.11,1.93,17.06,17.06,0,0,0-2.72,2.84,22.58,22.58,0,0,0-2.32,3.87,23.92,23.92,0,0,0-1.38,3.5l-.18.1q-2,1.25-3.86,2.63L29,41A34.78,34.78,0,0,1,25,43.51a22.92,22.92,0,0,1-4.26,1.76,16.72,16.72,0,0,1-4.82.67,10.43,10.43,0,0,1-3.74-.63,7.05,7.05,0,0,1-2.81-1.92,8.86,8.86,0,0,1-1.77-3.22A14.86,14.86,0,0,1,7,35.62a23.51,23.51,0,0,1,.35-3.88,37.47,37.47,0,0,1,1-4.35A44,44,0,0,1,10,22.9a41.05,41.05,0,0,1,2.11-4.33,34.61,34.61,0,0,1,2.55-3.9,20.48,20.48,0,0,1,2.92-3.15,13.76,13.76,0,0,1,3.21-2.11,8.07,8.07,0,0,1,3.43-.78,6.33,6.33,0,0,1,2.53.45,4.77,4.77,0,0,1,1.7,1.2,4.5,4.5,0,0,1,1,1.73,7.29,7.29,0,0,1,.29,2.09,8.73,8.73,0,0,1-.82,3.8,10.21,10.21,0,0,1-2.1,3,9.43,9.43,0,0,1-2.88,1.93,8,8,0,0,1-3.16.68,4.48,4.48,0,0,1-1-.08,5.37,5.37,0,0,1-.65-.18L18.62,23a1.42,1.42,0,0,0-.51-.08,1.13,1.13,0,0,0-.77.24,1.55,1.55,0,0,0-.43.64,3.43,3.43,0,0,0-.2.87,8.86,8.86,0,0,0,0,.92q0,.29,0,.56t0,.46a1.87,1.87,0,0,0,1.1,1.72,7.16,7.16,0,0,0,3.32.6,9.49,9.49,0,0,0,3.37-.65,14.83,14.83,0,0,0,3.25-1.72A17.29,17.29,0,0,0,30.65,24,19.33,19.33,0,0,0,33,20.82a16.72,16.72,0,0,0,1.57-3.54,12.21,12.21,0,0,0,.57-3.65A11,11,0,0,0,34.24,9,10,10,0,0,0,31.88,5.7a9.41,9.41,0,0,0-3.25-1.92,10.9,10.9,0,0,0-3.57-.62A15.63,15.63,0,0,0,19.84,4a20.34,20.34,0,0,0-4.79,2.45,27.11,27.11,0,0,0-4.27,3.66,35.67,35.67,0,0,0-3.67,4.56,42.42,42.42,0,0,0-3,5.14,44.9,44.9,0,0,0-2.23,5.37,38.75,38.75,0,0,0-1.4,5.29A26.28,26.28,0,0,0,0,35.36a19,19,0,0,0,1,6.2A16,16,0,0,0,3.9,46.74a14,14,0,0,0,4.53,3.54,13.21,13.21,0,0,0,5.95,1.31,33.86,33.86,0,0,0,5.43-.4,29.09,29.09,0,0,0,4.49-1.08A23.9,23.9,0,0,0,28,48.54a31.79,31.79,0,0,0,3.11-1.89A23.58,23.58,0,0,0,33.8,44.5q1.23-1.15,2.38-2.19l.15-.13q.1.36.24.72a6.74,6.74,0,0,0,1.37,2.19,6,6,0,0,0,2,1.38,5.69,5.69,0,0,0,2.28.48,7.07,7.07,0,0,0,2.22-.36,12.12,12.12,0,0,0,2.13-.93,13,13,0,0,0,1.88-1.27A11.89,11.89,0,0,0,49.86,43a8.36,8.36,0,0,0,1.87,3,3.78,3.78,0,0,0,2.7,1,6,6,0,0,0,2.69-.67,13.21,13.21,0,0,0,2.51-1.63,18.47,18.47,0,0,0,1.46-1.34c0,.09,0,.19,0,.28a6.81,6.81,0,0,0,.32,1.64,2.75,2.75,0,0,0,.71,1.16,1.78,1.78,0,0,0,1.27.44,1.81,1.81,0,0,0,1-.25,2.55,2.55,0,0,0,.72-.74,7.94,7.94,0,0,0,.67-1.3q.34-.81.88-1.9a41.33,41.33,0,0,1,2.41-4.26q1.33-2.06,2.58-3.72T73.88,32a9.2,9.2,0,0,1,1.4-1.35l.51.07a3.32,3.32,0,0,0-.33.54q-.25.47-.6,1.21t-.74,1.68q-.39.94-.71,1.92t-.53,2a8.15,8.15,0,0,0-.22,1.76A9.52,9.52,0,0,0,73,42.16a8.45,8.45,0,0,0,1,2.32,5.66,5.66,0,0,0,1.66,1.74A4.15,4.15,0,0,0,78,46.9a6.73,6.73,0,0,0,1.84-.28,15,15,0,0,0,1.93-.7,19.57,19.57,0,0,0,1.92-1q1-.55,1.77-1.09t1.49-1l.95-.68a9.8,9.8,0,0,0,1,1.62,8.27,8.27,0,0,0,2.85,2.27,8.9,8.9,0,0,0,4,.85,12.46,12.46,0,0,0,2.89-.34h0a17.22,17.22,0,0,0,2.76-.9A20.22,20.22,0,0,0,104,44.37q1.21-.73,2.26-1.48l.35-.27a9.8,9.8,0,0,0,.78,1.16,8.28,8.28,0,0,0,2.85,2.27,8.9,8.9,0,0,0,4,.85,12.46,12.46,0,0,0,2.89-.34,17.23,17.23,0,0,0,2.76-.9,20.22,20.22,0,0,0,2.54-1.3q1.21-.73,2.26-1.48a32.51,32.51,0,0,0,4.57-4Zm-77.64-.31a14,14,0,0,1-.43,2,13.55,13.55,0,0,1-.87,2.29,7.65,7.65,0,0,1-1.27,1.89,2.2,2.2,0,0,1-1.64.79,1.45,1.45,0,0,1-.93-.29,2.06,2.06,0,0,1-.59-.75,3.7,3.7,0,0,1-.31-1.06,8.54,8.54,0,0,1-.09-1.22,10.1,10.1,0,0,1,.28-2.27,17.16,17.16,0,0,1,1-2.81,17.8,17.8,0,0,1,1.39-2.69,12,12,0,0,1,1.55-1.94,7.27,7.27,0,0,1,1.79-1.34,4.18,4.18,0,0,1,2-.5ZM67.8,26.23l-1.44,3.34q.29-2.77.82-5.67l.38-2.62L68,18.45q.21-1.44.56-2.88t.77-2.78a51.58,51.58,0,0,1,2.93-6q1.24-2.07,1.88-2.07t.52,1.85A17.33,17.33,0,0,1,74,10.33a56.58,56.58,0,0,1-2.09,6.3q-.44,1.1-1.11,2.67l-1.43,3.34ZM92.57,34A7.42,7.42,0,0,1,93,32.13q.4-1.15.71-1.92a5.09,5.09,0,0,1,.81-1.38,3.76,3.76,0,0,1,3.05-1.37,1.16,1.16,0,0,1,1,.69,3.47,3.47,0,0,1,.4,1.77,3.59,3.59,0,0,1-.86,1.93,9.26,9.26,0,0,1-1.75,1.86,8.73,8.73,0,0,1-1.94,1.13,5,5,0,0,1-1.92.44q0-.53,0-1.27ZM111,34a7.42,7.42,0,0,1,.45-1.89q.4-1.15.71-1.92a5.09,5.09,0,0,1,.81-1.38A3.76,3.76,0,0,1,116,27.45a1.16,1.16,0,0,1,1,.69,3.47,3.47,0,0,1,.4,1.77,3.59,3.59,0,0,1-.86,1.93,9.26,9.26,0,0,1-1.75,1.86,8.7,8.7,0,0,1-1.94,1.13,5,5,0,0,1-1.92.44Q110.93,34.75,111,34Z"/></svg>